<svg xmlns="http://www.w3.org/2000/svg" width="96" height="96" viewBox="0 0 96 96"><path fill="#ED1F24" d="M57.567 48.455l35.337-35.34A7.1 7.1 0 0 0 95 8.06a7.1 7.1 0 0 0-2.096-5.057C91.554 1.653 89.758.91 87.848.91S84.143 1.65 82.792 3L48 37.797 13.208 3.003A7.105 7.105 0 0 0 8.152.91c-1.91 0-3.705.743-5.056 2.094C1.746 4.354 1 6.15 1 8.06s.745 3.705 2.096 5.056l35.337 35.34L3.097 83.794c-1.35 1.352-2.095 3.146-2.095 5.057s.744 3.706 2.095 5.058A7.11 7.11 0 0 0 8.15 96a7.1 7.1 0 0 0 5.058-2.094L48 59.113l34.79 34.793A7.1 7.1 0 0 0 87.85 96a7.106 7.106 0 0 0 5.055-2.093C94.255 92.555 95 90.76 95 88.85s-.745-3.705-2.097-5.057L57.567 48.455z"/></svg>